HIERARCHY
ROOT Hips
{
    OFFSET 0.000000 0.000000 0.000000
    CHANNELS 6 Xposition Yposition Zposition Zrotation Xrotation Yrotation
        JOINT Chest
        {
            OFFSET -0.000000 31.966684 -0.000000
            CHANNELS 3 Zrotation Xrotation Yrotation
            JOINT Neck
            {
                OFFSET -0.000000 23.973995 0.000000
                CHANNELS 3 Zrotation Xrotation Yrotation
                JOINT Head
                {
                    OFFSET -0.000000 10.633333 0.000000
                    CHANNELS 3 Zrotation Xrotation Yrotation
                    End Site
                    {
                        OFFSET -0.000000 16.433334 0.000000
                    }
                }
            }
            JOINT LeftCollar
            {
                OFFSET -0.000000 23.973995 0.000000
                CHANNELS 3 Zrotation Xrotation Yrotation
                JOINT LeftShoulder
                {
                    OFFSET 19.333332 -0.000000 0.000000
                    CHANNELS 3 Zrotation Xrotation Yrotation
                    JOINT LeftElbow
                    {
                        OFFSET 20.067463 0.000000 0.000000
                        CHANNELS 3 Zrotation Xrotation Yrotation
                        JOINT LeftWrist
                        {
                            OFFSET 23.490957 0.000000 0.000000
                            CHANNELS 3 Zrotation Xrotation Yrotation
                            End Site
                            {
                                OFFSET 0.000000 -14.500000 0.000000
                            }
                        }
                    }
                }
            }
            JOINT RightCollar
            {
                OFFSET -0.000000 23.973995 0.000000
                CHANNELS 3 Zrotation Xrotation Yrotation
                JOINT RightShoulder
                {
                    OFFSET -19.333332 0.000000 0.000000
                    CHANNELS 3 Zrotation Xrotation Yrotation
                    JOINT RightElbow
                    {
                        OFFSET -20.067463 0.000000 0.000000
                        CHANNELS 3 Zrotation Xrotation Yrotation
                        JOINT RightWrist
                        {
                            OFFSET -23.490957 0.000000 0.000000
                            CHANNELS 3 Zrotation Xrotation Yrotation
                            End Site
                            {
                                OFFSET -0.000000 -14.500000 0.000000
                            }
                        }
                    }
                }
            }
        }
    JOINT LeftHip
    {
        OFFSET 11.599999 0.000000 0.000000
        CHANNELS 3 Zrotation Xrotation Yrotation
        JOINT LeftKnee
        {
            OFFSET -0.000000 -35.131119 0.000000
            CHANNELS 3 Zrotation Xrotation Yrotation
            JOINT LeftAnkle
            {
                OFFSET -0.000000 -37.839104 0.000000
                CHANNELS 3 Zrotation Xrotation Yrotation
                End Site
                {
                    OFFSET -0.000000 -4.833333 16.433334
                }
            }
        }
    }
    JOINT RightHip
    {
        OFFSET -11.599999 0.000000 0.000000
        CHANNELS 3 Zrotation Xrotation Yrotation
        JOINT RightKnee
        {
            OFFSET -0.000000 -35.131119 0.000000
            CHANNELS 3 Zrotation Xrotation Yrotation
            JOINT RightAnkle
            {
                OFFSET -0.000000 -37.839104 0.000000
                CHANNELS 3 Zrotation Xrotation Yrotation
                End Site
                {
                    OFFSET -0.000000 -4.833333 16.433334
                }
            }
        }
    }
}
MOTION
Frames:    12
Frame Time:    0.010000
-76.740799    83.155464    -46.428524    2.434108    -3.210114    11.835770    -6.671111    7.463008    1.199432    8.922696    3.545873    8.384857    -14.580312    -7.186527    8.008777    -16.569237    -0.287378    2.165472    -36.380367    43.131214    -30.402636    -9.894287    1.958937    -21.964632    88.390686    3.594176    11.838512    13.631145    0.489054    4.323922    52.592575    21.843466    7.599294    11.627600    2.145231    21.104153    -111.753288    -23.399029    52.739998    0.415893    3.886062    1.341895    -10.277163    20.186789    6.256029    5.770741    -19.555695    38.451469    -12.990593    -4.408265    -2.910524    3.713264    18.665432    -11.761522    15.184370    -7.289345    -14.170987    
-76.719727    83.100250    -46.461777    2.464825    -3.220503    11.824005    -6.619540    7.647475    1.300452    8.765624    3.397643    8.439574    -14.156223    -8.572743    7.635149    -16.629080    -0.329211    2.122963    -36.376850    43.174664    -30.523964    -9.752311    1.938283    -22.248304    88.175125    3.118487    12.044584    13.530556    0.520974    4.501619    52.791344    21.947361    7.792178    11.581483    2.127690    20.571001    -113.648918    -24.083294    52.901649    0.470760    3.807151    1.391422    -10.458443    20.364868    6.190021    6.001105    -19.507515    38.462109    -13.035845    -4.416378    -2.766743    3.721955    18.664024    -11.966455    15.562237    -7.330547    -14.108786    
-76.663765    83.063942    -46.472313    2.477329    -3.170596    11.835665    -6.583674    7.704654    1.333628    8.843622    3.216805    8.390597    -14.156085    -8.404881    7.592034    -16.799284    -0.307475    2.089719    -36.173317    43.121555    -30.636995    -9.896364    1.960461    -22.475676    88.709816    3.485737    11.681324    13.958024    0.492721    3.861460    51.603180    24.832417    8.471235    10.722385    1.935092    21.670700    -114.624542    -22.655153    50.207943    0.403622    3.775325    1.553688    -10.373589    20.346468    5.991976    5.626176    -19.737116    38.402668    -13.188226    -4.533508    -2.690710    3.896712    18.762980    -12.114602    15.544545    -7.277319    -14.037750    
-76.638901    83.049019    -46.490055    2.492049    -3.152757    11.840901    -6.595489    7.782921    1.368135    9.097078    3.060138    8.337692    -14.318836    -8.269906    7.538782    -16.842474    -0.281010    1.964144    -36.043903    43.140495    -30.757252    -9.898446    2.004166    -22.624844    88.891518    3.475211    11.712145    14.050736    0.479043    3.725563    51.510365    25.130869    8.587081    10.582408    1.964633    21.687159    -115.238533    -22.628681    49.625534    0.381647    3.750158    1.667559    -10.361280    20.375534    5.862608    5.595275    -19.782053    38.374775    -13.268484    -4.585569    -2.672919    3.960437    18.811996    -12.195793    15.600164    -7.252748    -13.979255    
-76.610039    83.040688    -46.509403    2.509500    -3.132095    11.850966    -6.518912    7.873835    1.403954    8.808169    2.919773    8.408478    -14.094930    -8.186576    7.621237    -16.973944    -0.319927    2.071820    -35.963997    43.174599    -30.929445    -9.826203    1.995390    -22.803293    89.120476    3.466836    11.789552    14.025666    0.505414    3.881745    51.450691    25.210745    8.628343    10.487548    1.979112    21.643015    -115.757248    -22.688663    49.107109    0.343884    3.735301    1.816423    -10.316342    20.385786    5.695672    5.583745    -19.803974    38.337681    -13.362022    -4.643171    -2.677819    4.029431    18.869593    -12.272618    15.646933    -7.216777    -13.905342    
-76.576523    83.041046    -46.528301    2.530659    -3.111073    11.867464    -6.506903    7.972534    1.426795    8.999273    2.759427    8.378095    -14.207974    -8.052003    7.589025    -17.027576    -0.321824    1.978545    -35.860676    43.234100    -31.065571    -9.908340    2.029995    -22.914434    89.442833    3.443677    11.858886    14.076899    0.480842    3.863510    51.505692    25.087454    8.644918    10.342652    1.964177    21.674040    -116.144981    -22.746805    48.638527    0.286272    3.744000    1.991558    -10.233006    20.357786    5.490139    5.593361    -19.791338    38.295803    -13.466866    -4.700240    -2.708266    4.099458    18.932428    -12.341163    15.684382    -7.166291    -13.818164    
-76.538162    83.051880    -46.544239    2.556442    -3.093811    11.891390    -6.483221    8.069233    1.439281    9.059944    2.623013    8.383044    -14.238668    -7.926844    7.599205    -17.090843    -0.295996    1.942097    -35.770313    43.273651    -31.247828    -9.995961    2.036708    -23.005142    89.752495    3.413829    11.940047    14.084516    0.501189    3.937835    51.633339    24.728455    8.623261    10.318986    1.954810    21.534267    -116.440468    -22.935627    48.326698    0.206499    3.792252    2.179642    -10.109504    20.270346    5.246012    5.623695    -19.733793    38.256943    -13.579632    -4.748351    -2.763988    4.164577    18.995342    -12.396475    15.712386    -7.095682    -13.721541    
-76.495598    83.074173    -46.554829    2.587201    -3.083417    11.922699    -6.451659    8.167212    1.439004    9.050057    2.520957    8.411551    -14.232458    -7.830025    7.632874    -17.144964    -0.278036    1.937277    -35.713181    43.332325    -31.443922    -10.008794    2.079400    -23.087654    89.953476    3.394113    12.108983    14.066316    0.499916    4.064907    51.820698    24.251303    8.557821    10.247431    1.956716    21.453745    -116.561172    -23.058445    48.137074    0.104006    3.892394    2.366870    -9.947051    20.107059    4.966350    5.671116    -19.625860    38.228081    -13.695877    -4.780434    -2.842225    4.217659    19.051807    -12.431808    15.732146    -6.998050    -13.621475    
-76.450333    83.108063    -46.558041    2.622200    -3.081927    11.960399    -6.422390    8.263862    1.424068    9.042619    2.462681    8.449440    -14.248660    -7.762400    7.673608    -17.171051    -0.313201    1.933189    -35.717503    43.452477    -31.599632    -9.982719    2.037851    -23.167334    90.114075    3.352744    12.240275    14.037665    0.525896    4.200084    52.050774    23.661217    8.487984    10.237605    1.910381    21.312445    -116.518158    -23.200155    48.206005    -0.019537    4.050917    2.542925    -9.748143    19.860899    4.655290    5.728654    -19.469234    38.213177    -13.809975    -4.791434    -2.939910    4.251005    19.095396    -12.438150    15.749418    -6.868889    -13.525314    
-76.404778    83.152664    -46.552322    2.659848    -3.089762    12.003168    -6.393061    8.353924    1.393905    9.017709    2.457644    8.500609    -14.277699    -7.730956    7.726477    -17.172850    -0.285269    1.936839    -35.765926    43.508751    -31.731640    -10.134465    2.072317    -23.168720    90.274757    3.305617    12.298738    14.003934    0.551431    4.342209    52.297607    23.048046    8.411780    10.162406    1.911142    21.232988    -116.182114    -23.157797    48.453064    -0.159757    4.267155    2.701447    -9.517284    19.535971    4.317115    5.788231    -19.273039    38.213108    -13.915776    -4.779041    -3.056356    4.257790    19.121565    -12.404586    15.774080    -6.709526    -13.441767    
-76.362038    83.206291    -46.536507    2.697625    -3.105594    12.050342    -6.394203    8.425897    1.345873    9.140374    2.501160    8.527751    -14.434835    -7.715661    7.750394    -17.121008    -0.263749    1.878828    -35.849205    43.599346    -31.821335    -10.180537    2.092037    -23.203756    90.326607    3.297157    12.343238    14.007402    0.531856    4.409256    52.561470    22.482470    8.317626    10.013832    1.883416    21.265089    -115.541344    -22.910551    48.903107    -0.309669    4.534109    2.838006    -9.261137    19.144373    3.960227    5.840647    -19.051243    38.223675    -14.007080    -4.743369    -3.193777    4.233021    19.128492    -12.320218    15.817062    -6.527693    -13.378225    
-76.325264    83.266792    -46.509960    2.732880    -3.126692    12.102734    -6.353251    8.480134    1.281990    8.967596    2.609064    8.622870    -14.399870    -7.757969    7.848653    -17.086470    -0.262594    1.952084    -35.999935    43.688068    -31.891211    -10.223946    2.089126    -23.249546    90.354904    3.313657    12.298545    13.966345    0.556685    4.598161    52.788315    21.947172    8.213557    9.885844    1.854886    21.244389    -114.562607    -22.507826    49.560368    -0.461494    4.840224    2.945927    -8.988691    18.701586    3.603763    5.875491    -18.819574    38.234497    -14.078897    -4.685803    -3.354655    4.174842    19.116102    -12.179295    15.887545    -6.336111    -13.338835    
